<?xml version="1.0" encoding="utf-8"?>
<!-- Generator: Adobe Illustrator 24.0.0, SVG Export Plug-In . SVG Version: 6.00 Build 0)  -->
<svg version="1.1" id="PRINT" xmlns="http://www.w3.org/2000/svg" xmlns:xlink="http://www.w3.org/1999/xlink" x="0px" y="0px"
	 viewBox="0 0 1223.9 661.7" style="enable-background:new 0 0 1223.9 661.7;" xml:space="preserve">
<style type="text/css">
	.st0{fill:#F3EFDB;}
	.st1{clip-path:url(#SVGID_4_);}
	.st2{clip-path:url(#SVGID_10_);}
	.st3{opacity:0.2;}
	.st4{fill:#FFFFFD;}
	.st5{font-family:'Rowdies-Bold';}
	.st6{font-size:46.4081px;}
	.st7{letter-spacing:2;}
	.st8{fill:none;stroke:#2F2B42;stroke-width:8;}
	.st9{fill:none;stroke:#FFFFFF;stroke-width:3;}
	.st10{fill:#8BBCA1;}
	.st11{fill:none;stroke:#FFFFFF;stroke-width:1.1255;}
	.st12{fill:none;stroke:#2F2B42;stroke-width:4;}
	.st13{fill:#C98F43;}
	.st14{fill:#2F2B42;}
	.st15{font-family:'Oswald-Regular';}
	.st16{font-size:14.5025px;}
</style>
<g>
	<rect x="0" y="0.4" class="st0" width="1224.2" height="662.8"/>
	<g>
		<g>
			<g>
				<g>
					<defs>
						<rect id="SVGID_1_" x="-15.2" y="540" width="44" height="123.5"/>
					</defs>
					<clipPath id="SVGID_2_">
						<use xlink:href="#SVGID_1_"  style="overflow:visible;"/>
					</clipPath>
				</g>
			</g>
			<g>
				<g>
					<rect x="13" y="528.1" width="13.4" height="13.4"/>
					<rect x="13" y="501.4" width="13.4" height="13.4"/>
					<rect x="13" y="474.7" width="13.4" height="13.4"/>
					<rect x="13" y="447.9" width="13.4" height="13.4"/>
					<rect x="13" y="421.2" width="13.4" height="13.4"/>
					<rect x="13" y="394.5" width="13.4" height="13.4"/>
					<rect x="13" y="367.8" width="13.4" height="13.4"/>
					<rect x="13" y="341" width="13.4" height="13.4"/>
					<rect x="13" y="314.3" width="13.4" height="13.4"/>
					<rect x="13" y="287.6" width="13.4" height="13.4"/>
					<rect x="13" y="260.8" width="13.4" height="13.4"/>
					<rect x="13" y="234.1" width="13.4" height="13.4"/>
					<rect x="13" y="207.4" width="13.4" height="13.4"/>
					<rect x="13" y="180.7" width="13.4" height="13.4"/>
					<rect x="13" y="153.9" width="13.4" height="13.4"/>
					<rect x="13" y="127.2" width="13.4" height="13.4"/>
					<rect x="13" y="100.5" width="13.4" height="13.4"/>
					<rect x="13" y="73.8" width="13.4" height="13.4"/>
					<rect x="13" y="47" width="13.4" height="13.4"/>
					<rect x="13" y="20.3" width="13.4" height="13.4"/>
				</g>
				<g>
					<rect x="0" y="516.1" width="13.4" height="13.4"/>
					<rect x="0" y="489.4" width="13.4" height="13.4"/>
					<rect x="0" y="462.7" width="13.4" height="13.4"/>
					<rect x="0" y="435.9" width="13.4" height="13.4"/>
					<rect x="0" y="409.2" width="13.4" height="13.4"/>
					<rect x="0" y="382.5" width="13.4" height="13.4"/>
					<rect x="0" y="355.8" width="13.4" height="13.4"/>
					<rect x="0" y="329" width="13.4" height="13.4"/>
					<rect x="0" y="302.3" width="13.4" height="13.4"/>
					<rect x="0" y="275.6" width="13.4" height="13.4"/>
					<rect x="0" y="248.8" width="13.4" height="13.4"/>
					<rect x="0" y="222.1" width="13.4" height="13.4"/>
					<rect x="0" y="195.4" width="13.4" height="13.4"/>
					<rect x="0" y="168.7" width="13.4" height="13.4"/>
					<rect x="0" y="141.9" width="13.4" height="13.4"/>
					<rect x="0" y="115.2" width="13.4" height="13.4"/>
					<rect x="0" y="88.5" width="13.4" height="13.4"/>
					<rect x="0" y="61.8" width="13.4" height="13.4"/>
					<rect x="0" y="35" width="13.4" height="13.4"/>
					<rect x="0" y="8.3" width="13.4" height="13.4"/>
				</g>
				<rect x="26.4" y="-0.9" width="3" height="663.9"/>
				<g>
					<defs>
						<rect id="SVGID_3_" x="-15.2" y="540" width="44" height="123.5"/>
					</defs>
					<clipPath id="SVGID_4_">
						<use xlink:href="#SVGID_3_"  style="overflow:visible;"/>
					</clipPath>
					<g class="st1">
						<rect x="14" y="1061" width="13.4" height="13.4"/>
						<rect x="14" y="1034.3" width="13.4" height="13.4"/>
						<rect x="14" y="1007.6" width="13.4" height="13.4"/>
						<rect x="14" y="980.9" width="13.4" height="13.4"/>
						<rect x="14" y="954.1" width="13.4" height="13.4"/>
						<rect x="14" y="927.4" width="13.4" height="13.4"/>
						<rect x="14" y="900.7" width="13.4" height="13.4"/>
						<rect x="14" y="874" width="13.4" height="13.4"/>
						<rect x="14" y="847.2" width="13.4" height="13.4"/>
						<rect x="14" y="820.5" width="13.4" height="13.4"/>
						<rect x="14" y="793.8" width="13.4" height="13.4"/>
						<rect x="14" y="767.1" width="13.4" height="13.4"/>
						<rect x="14" y="740.3" width="13.4" height="13.4"/>
						<rect x="14" y="713.6" width="13.4" height="13.4"/>
						<rect x="14" y="686.9" width="13.4" height="13.4"/>
						<rect x="14" y="660.1" width="13.4" height="13.4"/>
						<rect x="14" y="633.4" width="13.4" height="13.4"/>
						<rect x="14" y="606.7" width="13.4" height="13.4"/>
						<rect x="14" y="580" width="13.4" height="13.4"/>
						<rect x="14" y="553.2" width="13.4" height="13.4"/>
					</g>
					<g class="st1">
						<rect x="1" y="1049" width="13.4" height="13.4"/>
						<rect x="1" y="1022.3" width="13.4" height="13.4"/>
						<rect x="1" y="995.6" width="13.4" height="13.4"/>
						<rect x="1" y="968.9" width="13.4" height="13.4"/>
						<rect x="1" y="942.1" width="13.4" height="13.4"/>
						<rect x="1" y="915.4" width="13.4" height="13.4"/>
						<rect x="1" y="888.7" width="13.4" height="13.4"/>
						<rect x="1" y="862" width="13.4" height="13.4"/>
						<rect x="1" y="835.2" width="13.4" height="13.4"/>
						<rect x="1" y="808.5" width="13.4" height="13.4"/>
						<rect x="1" y="781.8" width="13.4" height="13.4"/>
						<rect x="1" y="755.1" width="13.4" height="13.4"/>
						<rect x="1" y="728.3" width="13.4" height="13.4"/>
						<rect x="1" y="701.6" width="13.4" height="13.4"/>
						<rect x="1" y="674.9" width="13.4" height="13.4"/>
						<rect x="1" y="648.1" width="13.4" height="13.4"/>
						<rect x="1" y="621.4" width="13.4" height="13.4"/>
						<rect x="1" y="594.7" width="13.4" height="13.4"/>
						<rect x="1" y="568" width="13.4" height="13.4"/>
						<rect x="1" y="541.2" width="13.4" height="13.4"/>
					</g>
				</g>
			</g>
			<g>
				<g>
					<defs>
						<rect id="SVGID_5_" x="-15.2" y="540" width="44" height="123.5"/>
					</defs>
					<clipPath id="SVGID_6_">
						<use xlink:href="#SVGID_5_"  style="overflow:visible;"/>
					</clipPath>
				</g>
			</g>
		</g>
	</g>
	<g>
		<g>
			<g>
				<g>
					<defs>
						<rect id="SVGID_7_" x="1195.2" y="-0.9" width="44" height="123.5"/>
					</defs>
					<clipPath id="SVGID_8_">
						<use xlink:href="#SVGID_7_"  style="overflow:visible;"/>
					</clipPath>
				</g>
			</g>
			<g>
				<g>
					<rect x="1197.6" y="121.1" width="13.4" height="13.4"/>
					<rect x="1197.6" y="147.8" width="13.4" height="13.4"/>
					<rect x="1197.6" y="174.5" width="13.4" height="13.4"/>
					<rect x="1197.6" y="201.3" width="13.4" height="13.4"/>
					<rect x="1197.6" y="228" width="13.4" height="13.4"/>
					<rect x="1197.6" y="254.7" width="13.4" height="13.4"/>
					<rect x="1197.6" y="281.4" width="13.4" height="13.4"/>
					<rect x="1197.6" y="308.2" width="13.4" height="13.4"/>
					<rect x="1197.6" y="334.9" width="13.4" height="13.4"/>
					<rect x="1197.6" y="361.6" width="13.4" height="13.4"/>
					<rect x="1197.6" y="388.3" width="13.4" height="13.4"/>
					<rect x="1197.6" y="415.1" width="13.4" height="13.4"/>
					<rect x="1197.6" y="441.8" width="13.4" height="13.4"/>
					<rect x="1197.6" y="468.5" width="13.4" height="13.4"/>
					<rect x="1197.6" y="495.2" width="13.4" height="13.4"/>
					<rect x="1197.6" y="522" width="13.4" height="13.4"/>
					<rect x="1197.6" y="548.7" width="13.4" height="13.4"/>
					<rect x="1197.6" y="575.4" width="13.4" height="13.4"/>
					<rect x="1197.6" y="602.2" width="13.4" height="13.4"/>
					<rect x="1197.6" y="628.9" width="13.4" height="13.4"/>
				</g>
				<g>
					<rect x="1210.6" y="133.1" width="13.4" height="13.4"/>
					<rect x="1210.6" y="159.8" width="13.4" height="13.4"/>
					<rect x="1210.6" y="186.5" width="13.4" height="13.4"/>
					<rect x="1210.6" y="213.3" width="13.4" height="13.4"/>
					<rect x="1210.6" y="240" width="13.4" height="13.4"/>
					<rect x="1210.6" y="266.7" width="13.4" height="13.4"/>
					<rect x="1210.6" y="293.4" width="13.4" height="13.4"/>
					<rect x="1210.6" y="320.2" width="13.4" height="13.4"/>
					<rect x="1210.6" y="346.9" width="13.4" height="13.4"/>
					<rect x="1210.6" y="373.6" width="13.4" height="13.4"/>
					<rect x="1210.6" y="400.3" width="13.4" height="13.4"/>
					<rect x="1210.6" y="427.1" width="13.4" height="13.4"/>
					<rect x="1210.6" y="453.8" width="13.4" height="13.4"/>
					<rect x="1210.6" y="480.5" width="13.4" height="13.4"/>
					<rect x="1210.6" y="507.2" width="13.4" height="13.4"/>
					<rect x="1210.6" y="534" width="13.4" height="13.4"/>
					<rect x="1210.6" y="560.7" width="13.4" height="13.4"/>
					<rect x="1210.6" y="587.4" width="13.4" height="13.4"/>
					<rect x="1210.6" y="614.2" width="13.4" height="13.4"/>
					<rect x="1210.6" y="640.9" width="13.4" height="13.4"/>
				</g>
				<rect x="1194.6" y="-0.5" width="3" height="663.9"/>
				<g>
					<defs>
						<rect id="SVGID_9_" x="1195.2" y="-0.9" width="44" height="123.5"/>
					</defs>
					<clipPath id="SVGID_10_">
						<use xlink:href="#SVGID_9_"  style="overflow:visible;"/>
					</clipPath>
					<g class="st2">
						<rect x="1196.6" y="-411.9" width="13.4" height="13.4"/>
						<rect x="1196.6" y="-385.1" width="13.4" height="13.4"/>
						<rect x="1196.6" y="-358.4" width="13.4" height="13.4"/>
						<rect x="1196.6" y="-331.7" width="13.4" height="13.4"/>
						<rect x="1196.6" y="-304.9" width="13.4" height="13.4"/>
						<rect x="1196.6" y="-278.2" width="13.4" height="13.4"/>
						<rect x="1196.6" y="-251.5" width="13.4" height="13.4"/>
						<rect x="1196.6" y="-224.8" width="13.4" height="13.4"/>
						<rect x="1196.6" y="-198" width="13.4" height="13.4"/>
						<rect x="1196.6" y="-171.3" width="13.4" height="13.4"/>
						<rect x="1196.6" y="-144.6" width="13.4" height="13.4"/>
						<rect x="1196.6" y="-117.9" width="13.4" height="13.4"/>
						<rect x="1196.6" y="-91.1" width="13.4" height="13.4"/>
						<rect x="1196.6" y="-64.4" width="13.4" height="13.4"/>
						<rect x="1196.6" y="-37.7" width="13.4" height="13.4"/>
						<rect x="1196.6" y="-11" width="13.4" height="13.4"/>
						<rect x="1196.6" y="15.8" width="13.4" height="13.4"/>
						<rect x="1196.6" y="42.5" width="13.4" height="13.4"/>
						<rect x="1196.6" y="69.2" width="13.4" height="13.4"/>
						<rect x="1196.6" y="95.9" width="13.4" height="13.4"/>
					</g>
					<g class="st2">
						<rect x="1209.6" y="-399.9" width="13.4" height="13.4"/>
						<rect x="1209.6" y="-373.1" width="13.4" height="13.4"/>
						<rect x="1209.6" y="-346.4" width="13.4" height="13.4"/>
						<rect x="1209.6" y="-319.7" width="13.4" height="13.4"/>
						<rect x="1209.6" y="-292.9" width="13.4" height="13.4"/>
						<rect x="1209.6" y="-266.2" width="13.4" height="13.4"/>
						<rect x="1209.6" y="-239.5" width="13.4" height="13.4"/>
						<rect x="1209.6" y="-212.8" width="13.4" height="13.4"/>
						<rect x="1209.6" y="-186" width="13.4" height="13.4"/>
						<rect x="1209.6" y="-159.3" width="13.4" height="13.4"/>
						<rect x="1209.6" y="-132.6" width="13.4" height="13.4"/>
						<rect x="1209.6" y="-105.9" width="13.4" height="13.4"/>
						<rect x="1209.6" y="-79.1" width="13.4" height="13.4"/>
						<rect x="1209.6" y="-52.4" width="13.4" height="13.4"/>
						<rect x="1209.6" y="-25.7" width="13.4" height="13.4"/>
						<rect x="1209.6" y="1" width="13.4" height="13.4"/>
						<rect x="1209.6" y="27.8" width="13.4" height="13.4"/>
						<rect x="1209.6" y="54.5" width="13.4" height="13.4"/>
						<rect x="1209.6" y="81.2" width="13.4" height="13.4"/>
						<rect x="1209.6" y="107.9" width="13.4" height="13.4"/>
					</g>
				</g>
			</g>
			<g>
				<g>
					<defs>
						<rect id="SVGID_11_" x="1195.2" y="-0.9" width="44" height="123.5"/>
					</defs>
					<clipPath id="SVGID_12_">
						<use xlink:href="#SVGID_11_"  style="overflow:visible;"/>
					</clipPath>
				</g>
			</g>
		</g>
	</g>
	<g class="st3">
		<g>
			<g>
				<text transform="matrix(1 0 0 1 510.2539 309.3701)" class="st4 st5 st6 st7">DARLINGS</text>
				<g>
					<text transform="matrix(1 0 0 1 510.2539 315.7501)" class="st8 st5 st6 st7">DARLINGS</text>
					<text transform="matrix(1 0 0 1 510.2539 315.4311)" class="st8 st5 st6 st7">DARLINGS</text>
					<text transform="matrix(1 0 0 1 510.2539 315.1121)" class="st8 st5 st6 st7">DARLINGS</text>
					<text transform="matrix(1 0 0 1 510.2539 314.7931)" class="st8 st5 st6 st7">DARLINGS</text>
					<text transform="matrix(1 0 0 1 510.2539 314.4741)" class="st8 st5 st6 st7">DARLINGS</text>
					<text transform="matrix(1 0 0 1 510.2539 314.1551)" class="st8 st5 st6 st7">DARLINGS</text>
					<text transform="matrix(1 0 0 1 510.2539 313.8361)" class="st8 st5 st6 st7">DARLINGS</text>
					<text transform="matrix(1 0 0 1 510.2539 313.5171)" class="st8 st5 st6 st7">DARLINGS</text>
					<text transform="matrix(1 0 0 1 510.2539 313.1981)" class="st8 st5 st6 st7">DARLINGS</text>
					<text transform="matrix(1 0 0 1 510.2539 312.8791)" class="st8 st5 st6 st7">DARLINGS</text>
					<text transform="matrix(1 0 0 1 510.2539 312.5601)" class="st8 st5 st6 st7">DARLINGS</text>
					<text transform="matrix(1 0 0 1 510.2539 312.2411)" class="st8 st5 st6 st7">DARLINGS</text>
					<text transform="matrix(1 0 0 1 510.2539 311.9221)" class="st8 st5 st6 st7">DARLINGS</text>
					<text transform="matrix(1 0 0 1 510.2539 311.6031)" class="st8 st5 st6 st7">DARLINGS</text>
					<text transform="matrix(1 0 0 1 510.2539 311.2841)" class="st8 st5 st6 st7">DARLINGS</text>
					<text transform="matrix(1 0 0 1 510.2539 310.9651)" class="st8 st5 st6 st7">DARLINGS</text>
					<text transform="matrix(1 0 0 1 510.2539 310.6461)" class="st8 st5 st6 st7">DARLINGS</text>
					<text transform="matrix(1 0 0 1 510.2539 310.3271)" class="st8 st5 st6 st7">DARLINGS</text>
					<text transform="matrix(1 0 0 1 510.2539 310.0081)" class="st8 st5 st6 st7">DARLINGS</text>
					<text transform="matrix(1 0 0 1 510.2539 309.6891)" class="st8 st5 st6 st7">DARLINGS</text>
					<text transform="matrix(1 0 0 1 510.2539 309.3701)" class="st8 st5 st6 st7">DARLINGS</text>
				</g>
				<text transform="matrix(1 0 0 1 510.2539 309.3701)" class="st9 st5 st6 st7">DARLINGS</text>
				<text transform="matrix(1 0 0 1 510.2539 309.3701)" class="st10 st5 st6 st7">DARLINGS</text>
				<text transform="matrix(1 0 0 1 510.2539 309.3701)" class="st11 st5 st6 st7">DARLINGS</text>
			</g>
			<g>
				<g>
					<g>
						<g>
							
								<ellipse transform="matrix(0.1588 -0.9873 0.9873 0.1588 135.0186 836.2846)" class="st12" cx="558.3" cy="338.9" rx="12" ry="12"/>
							
								<ellipse transform="matrix(0.1588 -0.9873 0.9873 0.1588 135.1778 836.149)" class="st12" cx="558.3" cy="338.7" rx="12" ry="12"/>
							
								<ellipse transform="matrix(0.1588 -0.9873 0.9873 0.1588 135.3369 836.0134)" class="st12" cx="558.3" cy="338.6" rx="12" ry="12"/>
							
								<ellipse transform="matrix(0.1588 -0.9873 0.9873 0.1588 135.4961 835.8778)" class="st12" cx="558.3" cy="338.4" rx="12" ry="12"/>
							
								<ellipse transform="matrix(0.1588 -0.9873 0.9873 0.1588 135.6552 835.7422)" class="st12" cx="558.3" cy="338.3" rx="12" ry="12"/>
							
								<ellipse transform="matrix(0.1588 -0.9873 0.9873 0.1588 135.8144 835.6066)" class="st12" cx="558.3" cy="338.1" rx="12" ry="12"/>
							
								<ellipse transform="matrix(0.1588 -0.9873 0.9873 0.1588 135.9735 835.4711)" class="st12" cx="558.3" cy="337.9" rx="12" ry="12"/>
							
								<ellipse transform="matrix(0.1588 -0.9873 0.9873 0.1588 136.1327 835.3354)" class="st12" cx="558.3" cy="337.8" rx="12" ry="12"/>
							
								<ellipse transform="matrix(0.1588 -0.9873 0.9873 0.1588 136.2919 835.1998)" class="st12" cx="558.3" cy="337.6" rx="12" ry="12"/>
							
								<ellipse transform="matrix(0.1588 -0.9873 0.9873 0.1588 136.451 835.0643)" class="st12" cx="558.3" cy="337.5" rx="12" ry="12"/>
							
								<ellipse transform="matrix(0.1588 -0.9873 0.9873 0.1588 136.6102 834.9286)" class="st12" cx="558.3" cy="337.3" rx="12" ry="12"/>
							
								<ellipse transform="matrix(0.1588 -0.9873 0.9873 0.1588 136.7693 834.793)" class="st12" cx="558.3" cy="337.1" rx="12" ry="12"/>
							
								<ellipse transform="matrix(0.1588 -0.9873 0.9873 0.1588 136.9285 834.6575)" class="st12" cx="558.3" cy="337" rx="12" ry="12"/>
							
								<ellipse transform="matrix(0.1588 -0.9873 0.9873 0.1588 137.0876 834.5219)" class="st12" cx="558.3" cy="336.8" rx="12" ry="12"/>
							
								<ellipse transform="matrix(0.1588 -0.9873 0.9873 0.1588 137.2468 834.3863)" class="st12" cx="558.3" cy="336.6" rx="12" ry="12"/>
							
								<ellipse transform="matrix(0.1588 -0.9873 0.9873 0.1588 137.4059 834.2507)" class="st12" cx="558.3" cy="336.5" rx="12" ry="12"/>
							
								<ellipse transform="matrix(0.1588 -0.9873 0.9873 0.1588 137.5651 834.1151)" class="st12" cx="558.3" cy="336.3" rx="12" ry="12"/>
							
								<ellipse transform="matrix(0.1588 -0.9873 0.9873 0.1588 137.7242 833.9795)" class="st12" cx="558.3" cy="336.2" rx="12" ry="12"/>
							
								<ellipse transform="matrix(0.1588 -0.9873 0.9873 0.1588 137.8834 833.8439)" class="st12" cx="558.3" cy="336" rx="12" ry="12"/>
							
								<ellipse transform="matrix(0.1588 -0.9873 0.9873 0.1588 138.0425 833.7083)" class="st12" cx="558.3" cy="335.8" rx="12" ry="12"/>
							
								<ellipse transform="matrix(0.1588 -0.9873 0.9873 0.1588 138.2017 833.5727)" class="st12" cx="558.3" cy="335.7" rx="12" ry="12"/>
						</g>
						
							<ellipse transform="matrix(0.1588 -0.9873 0.9873 0.1588 138.2017 833.5727)" class="st13" cx="558.3" cy="335.7" rx="12" ry="12"/>
					</g>
					<path class="st0" d="M558.3,345.7c-5.5,0-10.1-4.5-10.1-10.1c0-5.5,4.5-10.1,10.1-10.1c5.5,0,10.1,4.5,10.1,10.1
						C568.4,341.2,563.8,345.7,558.3,345.7z"/>
					<g>
						<text transform="matrix(1 0 0 1 553.7061 342.0654)" class="st14 st15 st16">D</text>
					</g>
				</g>
				<g>
					<g>
						<g>
							
								<ellipse transform="matrix(0.2349 -0.972 0.972 0.2349 121.93 832.7075)" class="st12" cx="589.9" cy="338.9" rx="12" ry="12"/>
							
								<ellipse transform="matrix(0.2349 -0.972 0.972 0.2349 122.0867 832.5841)" class="st12" cx="589.9" cy="338.7" rx="12" ry="12"/>
							
								<ellipse transform="matrix(0.2349 -0.972 0.972 0.2349 122.2434 832.4608)" class="st12" cx="589.9" cy="338.6" rx="12" ry="12"/>
							
								<ellipse transform="matrix(0.2349 -0.972 0.972 0.2349 122.4 832.3374)" class="st12" cx="589.9" cy="338.4" rx="12" ry="12"/>
							
								<ellipse transform="matrix(0.2349 -0.972 0.972 0.2349 122.5567 832.2141)" class="st12" cx="589.9" cy="338.3" rx="12" ry="12"/>
							
								<ellipse transform="matrix(0.2349 -0.972 0.972 0.2349 122.7134 832.0908)" class="st12" cx="589.9" cy="338.1" rx="12" ry="12"/>
							
								<ellipse transform="matrix(0.2349 -0.972 0.972 0.2349 122.8701 831.9674)" class="st12" cx="589.9" cy="337.9" rx="12" ry="12"/>
							
								<ellipse transform="matrix(0.2349 -0.972 0.972 0.2349 123.0268 831.8441)" class="st12" cx="589.9" cy="337.8" rx="12" ry="12"/>
							
								<ellipse transform="matrix(0.2349 -0.972 0.972 0.2349 123.1835 831.7207)" class="st12" cx="589.9" cy="337.6" rx="12" ry="12"/>
							
								<ellipse transform="matrix(0.2349 -0.972 0.972 0.2349 123.3402 831.5974)" class="st12" cx="589.9" cy="337.5" rx="12" ry="12"/>
							
								<ellipse transform="matrix(0.2349 -0.972 0.972 0.2349 123.4969 831.4741)" class="st12" cx="589.9" cy="337.3" rx="12" ry="12"/>
							
								<ellipse transform="matrix(0.2349 -0.972 0.972 0.2349 123.6536 831.3507)" class="st12" cx="589.9" cy="337.1" rx="12" ry="12"/>
							
								<ellipse transform="matrix(0.2349 -0.972 0.972 0.2349 123.8103 831.2274)" class="st12" cx="589.9" cy="337" rx="12" ry="12"/>
							
								<ellipse transform="matrix(0.2349 -0.972 0.972 0.2349 123.967 831.104)" class="st12" cx="589.9" cy="336.8" rx="12" ry="12"/>
							
								<ellipse transform="matrix(0.2349 -0.972 0.972 0.2349 124.1236 830.9807)" class="st12" cx="589.9" cy="336.6" rx="12" ry="12"/>
							
								<ellipse transform="matrix(0.2349 -0.972 0.972 0.2349 124.2803 830.8573)" class="st12" cx="589.9" cy="336.5" rx="12" ry="12"/>
							
								<ellipse transform="matrix(0.2349 -0.972 0.972 0.2349 124.437 830.734)" class="st12" cx="589.9" cy="336.3" rx="12" ry="12"/>
							
								<ellipse transform="matrix(0.2349 -0.972 0.972 0.2349 124.5937 830.6107)" class="st12" cx="589.9" cy="336.2" rx="12" ry="12"/>
							
								<ellipse transform="matrix(0.2349 -0.972 0.972 0.2349 124.7504 830.4873)" class="st12" cx="589.9" cy="336" rx="12" ry="12"/>
							
								<ellipse transform="matrix(0.2349 -0.972 0.972 0.2349 124.9071 830.364)" class="st12" cx="589.9" cy="335.8" rx="12" ry="12"/>
							
								<ellipse transform="matrix(0.2349 -0.972 0.972 0.2349 125.0638 830.2406)" class="st12" cx="589.9" cy="335.7" rx="12" ry="12"/>
						</g>
						
							<ellipse transform="matrix(0.2349 -0.972 0.972 0.2349 125.0638 830.2406)" class="st13" cx="589.9" cy="335.7" rx="12" ry="12"/>
					</g>
					<circle class="st0" cx="589.9" cy="335.7" r="10.1"/>
					<g>
						<text transform="matrix(1 0 0 1 588.4014 342.0654)" class="st14 st15 st16">I</text>
					</g>
				</g>
				<g>
					<g>
						<g>
							
								<ellipse transform="matrix(0.1529 -0.9882 0.9882 0.1529 191.5664 901.2867)" class="st12" cx="621.5" cy="338.9" rx="12" ry="12"/>
							
								<ellipse transform="matrix(0.1529 -0.9882 0.9882 0.1529 191.7257 901.1502)" class="st12" cx="621.5" cy="338.7" rx="12" ry="12"/>
							
								<ellipse transform="matrix(0.1529 -0.9882 0.9882 0.1529 191.885 901.0136)" class="st12" cx="621.5" cy="338.6" rx="12" ry="12"/>
							
								<ellipse transform="matrix(0.1529 -0.9882 0.9882 0.1529 192.0443 900.8771)" class="st12" cx="621.5" cy="338.4" rx="12" ry="12"/>
							
								<ellipse transform="matrix(0.1529 -0.9882 0.9882 0.1529 192.2037 900.7405)" class="st12" cx="621.5" cy="338.3" rx="12" ry="12"/>
							
								<ellipse transform="matrix(0.1529 -0.9882 0.9882 0.1529 192.363 900.6039)" class="st12" cx="621.5" cy="338.1" rx="12" ry="12"/>
							
								<ellipse transform="matrix(0.1529 -0.9882 0.9882 0.1529 192.5223 900.4674)" class="st12" cx="621.5" cy="337.9" rx="12" ry="12"/>
							
								<ellipse transform="matrix(0.1529 -0.9882 0.9882 0.1529 192.6816 900.3309)" class="st12" cx="621.5" cy="337.8" rx="12" ry="12"/>
							
								<ellipse transform="matrix(0.1529 -0.9882 0.9882 0.1529 192.8409 900.1943)" class="st12" cx="621.5" cy="337.6" rx="12" ry="12"/>
							
								<ellipse transform="matrix(0.1529 -0.9882 0.9882 0.1529 193.0002 900.0577)" class="st12" cx="621.5" cy="337.5" rx="12" ry="12"/>
							
								<ellipse transform="matrix(0.1529 -0.9882 0.9882 0.1529 193.1595 899.9212)" class="st12" cx="621.5" cy="337.3" rx="12" ry="12"/>
							
								<ellipse transform="matrix(0.1529 -0.9882 0.9882 0.1529 193.3188 899.7846)" class="st12" cx="621.5" cy="337.1" rx="12" ry="12"/>
							
								<ellipse transform="matrix(0.1529 -0.9882 0.9882 0.1529 193.4781 899.6481)" class="st12" cx="621.5" cy="337" rx="12" ry="12"/>
							
								<ellipse transform="matrix(0.1529 -0.9882 0.9882 0.1529 193.6374 899.5115)" class="st12" cx="621.5" cy="336.8" rx="12" ry="12"/>
							
								<ellipse transform="matrix(0.1529 -0.9882 0.9882 0.1529 193.7967 899.3749)" class="st12" cx="621.5" cy="336.6" rx="12" ry="12"/>
							
								<ellipse transform="matrix(0.1529 -0.9882 0.9882 0.1529 193.956 899.2384)" class="st12" cx="621.5" cy="336.5" rx="12" ry="12"/>
							
								<ellipse transform="matrix(0.1529 -0.9882 0.9882 0.1529 194.1153 899.1018)" class="st12" cx="621.5" cy="336.3" rx="12" ry="12"/>
							
								<ellipse transform="matrix(0.1529 -0.9882 0.9882 0.1529 194.2746 898.9653)" class="st12" cx="621.5" cy="336.2" rx="12" ry="12"/>
							
								<ellipse transform="matrix(0.1529 -0.9882 0.9882 0.1529 194.4339 898.8287)" class="st12" cx="621.5" cy="336" rx="12" ry="12"/>
							
								<ellipse transform="matrix(0.1529 -0.9882 0.9882 0.1529 194.5932 898.6921)" class="st12" cx="621.5" cy="335.8" rx="12" ry="12"/>
							
								<ellipse transform="matrix(0.1529 -0.9882 0.9882 0.1529 194.7525 898.5556)" class="st12" cx="621.5" cy="335.7" rx="12" ry="12"/>
						</g>
						
							<ellipse transform="matrix(0.1529 -0.9882 0.9882 0.1529 194.7525 898.5556)" class="st13" cx="621.5" cy="335.7" rx="12" ry="12"/>
					</g>
					
						<ellipse transform="matrix(2.368169e-03 -1 1 2.368169e-03 284.3423 956.3782)" class="st0" cx="621.5" cy="335.7" rx="10.1" ry="10.1"/>
					<g>
						<text transform="matrix(1 0 0 1 616.9629 342.0654)" class="st14 st15 st16">N</text>
					</g>
				</g>
				<g>
					<g>
						<g>
							
								<ellipse transform="matrix(0.1592 -0.9873 0.9873 0.1592 214.5665 929.7361)" class="st12" cx="653.1" cy="338.9" rx="12" ry="12"/>
							
								<ellipse transform="matrix(0.1592 -0.9873 0.9873 0.1592 214.7256 929.6006)" class="st12" cx="653.1" cy="338.7" rx="12" ry="12"/>
							
								<ellipse transform="matrix(0.1592 -0.9873 0.9873 0.1592 214.8848 929.465)" class="st12" cx="653.1" cy="338.6" rx="12" ry="12"/>
							
								<ellipse transform="matrix(0.1592 -0.9873 0.9873 0.1592 215.0439 929.3295)" class="st12" cx="653.1" cy="338.4" rx="12" ry="12"/>
							
								<ellipse transform="matrix(0.1592 -0.9873 0.9873 0.1592 215.2031 929.1939)" class="st12" cx="653.1" cy="338.3" rx="12" ry="12"/>
							
								<ellipse transform="matrix(0.1592 -0.9873 0.9873 0.1592 215.3622 929.0583)" class="st12" cx="653.1" cy="338.1" rx="12" ry="12"/>
							
								<ellipse transform="matrix(0.1592 -0.9873 0.9873 0.1592 215.5213 928.9229)" class="st12" cx="653.1" cy="337.9" rx="12" ry="12"/>
							
								<ellipse transform="matrix(0.1592 -0.9873 0.9873 0.1592 215.6805 928.7873)" class="st12" cx="653.1" cy="337.8" rx="12" ry="12"/>
							
								<ellipse transform="matrix(0.1592 -0.9873 0.9873 0.1592 215.8396 928.6517)" class="st12" cx="653.1" cy="337.6" rx="12" ry="12"/>
							
								<ellipse transform="matrix(0.1592 -0.9873 0.9873 0.1592 215.9988 928.5162)" class="st12" cx="653.1" cy="337.5" rx="12" ry="12"/>
							
								<ellipse transform="matrix(0.1592 -0.9873 0.9873 0.1592 216.1579 928.3807)" class="st12" cx="653.1" cy="337.3" rx="12" ry="12"/>
							
								<ellipse transform="matrix(0.1592 -0.9873 0.9873 0.1592 216.3171 928.2451)" class="st12" cx="653.1" cy="337.1" rx="12" ry="12"/>
							
								<ellipse transform="matrix(0.1592 -0.9873 0.9873 0.1592 216.4762 928.1096)" class="st12" cx="653.1" cy="337" rx="12" ry="12"/>
							
								<ellipse transform="matrix(0.1592 -0.9873 0.9873 0.1592 216.6354 927.974)" class="st12" cx="653.1" cy="336.8" rx="12" ry="12"/>
							
								<ellipse transform="matrix(0.1592 -0.9873 0.9873 0.1592 216.7945 927.8385)" class="st12" cx="653.1" cy="336.6" rx="12" ry="12"/>
							
								<ellipse transform="matrix(0.1592 -0.9873 0.9873 0.1592 216.9537 927.7029)" class="st12" cx="653.1" cy="336.5" rx="12" ry="12"/>
							
								<ellipse transform="matrix(0.1592 -0.9873 0.9873 0.1592 217.1128 927.5674)" class="st12" cx="653.1" cy="336.3" rx="12" ry="12"/>
							
								<ellipse transform="matrix(0.1592 -0.9873 0.9873 0.1592 217.2719 927.4318)" class="st12" cx="653.1" cy="336.2" rx="12" ry="12"/>
							
								<ellipse transform="matrix(0.1592 -0.9873 0.9873 0.1592 217.4311 927.2963)" class="st12" cx="653.1" cy="336" rx="12" ry="12"/>
							
								<ellipse transform="matrix(0.1592 -0.9873 0.9873 0.1592 217.5902 927.1608)" class="st12" cx="653.1" cy="335.8" rx="12" ry="12"/>
							
								<ellipse transform="matrix(0.1592 -0.9873 0.9873 0.1592 217.7494 927.0252)" class="st12" cx="653.1" cy="335.7" rx="12" ry="12"/>
						</g>
						
							<ellipse transform="matrix(0.1592 -0.9873 0.9873 0.1592 217.7494 927.0252)" class="st13" cx="653.1" cy="335.7" rx="12" ry="12"/>
					</g>
					<circle class="st0" cx="653.1" cy="335.7" r="10.1"/>
					<g>
						<text transform="matrix(1 0 0 1 649.7676 342.0654)" class="st14 st15 st16">E</text>
					</g>
				</g>
				<g>
					<g>
						<g>
							
								<ellipse transform="matrix(0.1592 -0.9873 0.9873 0.1592 241.137 960.933)" class="st12" cx="684.7" cy="338.9" rx="12" ry="12"/>
							
								<ellipse transform="matrix(0.1592 -0.9873 0.9873 0.1592 241.2962 960.7975)" class="st12" cx="684.7" cy="338.7" rx="12" ry="12"/>
							
								<ellipse transform="matrix(0.1592 -0.9873 0.9873 0.1592 241.4553 960.662)" class="st12" cx="684.7" cy="338.6" rx="12" ry="12"/>
							
								<ellipse transform="matrix(0.1592 -0.9873 0.9873 0.1592 241.6145 960.5264)" class="st12" cx="684.7" cy="338.4" rx="12" ry="12"/>
							
								<ellipse transform="matrix(0.1592 -0.9873 0.9873 0.1592 241.7736 960.3909)" class="st12" cx="684.7" cy="338.3" rx="12" ry="12"/>
							
								<ellipse transform="matrix(0.1592 -0.9873 0.9873 0.1592 241.9327 960.2554)" class="st12" cx="684.7" cy="338.1" rx="12" ry="12"/>
							
								<ellipse transform="matrix(0.1592 -0.9873 0.9873 0.1592 242.0919 960.1198)" class="st12" cx="684.7" cy="337.9" rx="12" ry="12"/>
							
								<ellipse transform="matrix(0.1592 -0.9873 0.9873 0.1592 242.251 959.9843)" class="st12" cx="684.7" cy="337.8" rx="12" ry="12"/>
							
								<ellipse transform="matrix(0.1592 -0.9873 0.9873 0.1592 242.4102 959.8487)" class="st12" cx="684.7" cy="337.6" rx="12" ry="12"/>
							
								<ellipse transform="matrix(0.1592 -0.9873 0.9873 0.1592 242.5693 959.7132)" class="st12" cx="684.7" cy="337.5" rx="12" ry="12"/>
							
								<ellipse transform="matrix(0.1592 -0.9873 0.9873 0.1592 242.7285 959.5776)" class="st12" cx="684.7" cy="337.3" rx="12" ry="12"/>
							
								<ellipse transform="matrix(0.1592 -0.9873 0.9873 0.1592 242.8876 959.4421)" class="st12" cx="684.7" cy="337.1" rx="12" ry="12"/>
							
								<ellipse transform="matrix(0.1592 -0.9873 0.9873 0.1592 243.0468 959.3065)" class="st12" cx="684.7" cy="337" rx="12" ry="12"/>
							
								<ellipse transform="matrix(0.1592 -0.9873 0.9873 0.1592 243.2059 959.171)" class="st12" cx="684.7" cy="336.8" rx="12" ry="12"/>
							
								<ellipse transform="matrix(0.1592 -0.9873 0.9873 0.1592 243.3651 959.0355)" class="st12" cx="684.7" cy="336.6" rx="12" ry="12"/>
							
								<ellipse transform="matrix(0.1592 -0.9873 0.9873 0.1592 243.5242 958.8999)" class="st12" cx="684.7" cy="336.5" rx="12" ry="12"/>
							
								<ellipse transform="matrix(0.1592 -0.9873 0.9873 0.1592 243.6833 958.7643)" class="st12" cx="684.7" cy="336.3" rx="12" ry="12"/>
							
								<ellipse transform="matrix(0.1592 -0.9873 0.9873 0.1592 243.8425 958.6288)" class="st12" cx="684.7" cy="336.2" rx="12" ry="12"/>
							
								<ellipse transform="matrix(0.1592 -0.9873 0.9873 0.1592 244.0016 958.4933)" class="st12" cx="684.7" cy="336" rx="12" ry="12"/>
							
								<ellipse transform="matrix(0.1592 -0.9873 0.9873 0.1592 244.1608 958.3577)" class="st12" cx="684.7" cy="335.8" rx="12" ry="12"/>
							
								<ellipse transform="matrix(0.1592 -0.9873 0.9873 0.1592 244.3199 958.2222)" class="st12" cx="684.7" cy="335.7" rx="12" ry="12"/>
						</g>
						
							<ellipse transform="matrix(0.1592 -0.9873 0.9873 0.1592 244.3199 958.2222)" class="st13" cx="684.7" cy="335.7" rx="12" ry="12"/>
					</g>
					
						<ellipse transform="matrix(0.9996 -2.777240e-02 2.777240e-02 0.9996 -9.0586 19.1451)" class="st0" cx="684.7" cy="335.7" rx="10.1" ry="10.1"/>
					<g>
						<text transform="matrix(1 0 0 1 681.0322 342.0654)" class="st14 st15 st16">R</text>
					</g>
				</g>
			</g>
		</g>
	</g>
</g>
</svg>
